<svg width="63" height="34" viewBox="0 0 63 34" fill="none" xmlns="http://www.w3.org/2000/svg">
<path d="M14.4389 1.0625H29.3139C30.0184 1.0625 30.694 1.34235 31.1922 1.8405C31.6903 2.33864 31.9702 3.01427 31.9702 3.71875V20.1875H11.7827V3.71875C11.7827 3.01427 12.0625 2.33864 12.5607 1.8405C13.0588 1.34235 13.7344 1.0625 14.4389 1.0625Z" fill="#707070"/>
<path d="M34.6264 1.0625H49.5014C50.2059 1.0625 50.8815 1.34235 51.3797 1.8405C51.8778 2.33864 52.1577 3.01427 52.1577 3.71875V20.1875H31.9702V3.71875C31.9702 3.01427 32.25 2.33864 32.7481 1.8405C33.2463 1.34235 33.9219 1.0625 34.6264 1.0625Z" fill="#707070"/>
<path d="M31.9702 20.1875H11.7827V16.4688C11.7827 15.7643 12.0625 15.0886 12.5607 14.5905C13.0588 14.0924 13.7344 13.8125 14.4389 13.8125H29.3139C30.0184 13.8125 30.694 14.0924 31.1922 14.5905C31.6903 15.0886 31.9702 15.7643 31.9702 16.4688V20.1875Z" fill="#474747"/>
<path d="M52.1577 20.1875H31.9702V16.4688C31.9702 15.7643 32.25 15.0886 32.7481 14.5905C33.2463 14.0924 33.9219 13.8125 34.6264 13.8125H49.5014C50.2059 13.8125 50.8815 14.0924 51.3797 14.5905C51.8778 15.0886 52.1577 15.7643 52.1577 16.4688V20.1875Z" fill="#474747"/>
<path d="M60.7747 6.93548L56.4831 5.86262C56.2011 5.7921 55.9076 5.7802 55.6207 5.82766C55.3339 5.87512 55.0599 5.98092 54.8156 6.13852C54.5713 6.29613 54.362 6.50218 54.2005 6.74393C54.0391 6.98569 53.9289 7.258 53.8769 7.54403L52.7276 13.8659C52.3484 15.9511 52.1576 18.0661 52.1577 20.1855V20.1875H11.7827V20.1855C11.7827 18.0661 11.592 15.9509 11.2128 13.8656L10.0634 7.54376C10.0114 7.25773 9.90126 6.98542 9.7398 6.74367C9.57833 6.50192 9.36898 6.29586 9.1247 6.13826C8.88041 5.98065 8.60638 5.87485 8.31957 5.82739C8.03276 5.77994 7.73925 5.79183 7.45722 5.86235L3.16565 6.93548C2.6283 7.06983 2.16464 7.40869 1.87345 7.87986C1.58226 8.35103 1.48654 8.91728 1.6067 9.45799L2.01762 11.3073C2.85846 15.0911 3.28267 18.9556 3.28266 22.8317V26.0313C3.28266 26.7357 3.56251 27.4114 4.06066 27.9095C4.5588 28.4077 5.23443 28.6875 5.93891 28.6875H58.0014C58.7059 28.6875 59.3815 28.4077 59.8797 27.9095C60.3778 27.4114 60.6577 26.7357 60.6577 26.0313V22.8317C60.6577 18.9556 61.0819 15.0911 61.9227 11.3073L62.3336 9.45799C62.4538 8.91728 62.3581 8.35103 62.0669 7.87986C61.7757 7.40869 61.312 7.06983 60.7747 6.93548Z" fill="#707070"/>
<path d="M9.65765 32.9375H6.47015L7.53265 28.6875H12.8452L9.65765 32.9375Z" fill="#683B0D"/>
<path d="M56.4077 32.9375H59.5952L58.5327 28.6875H53.2202L56.4077 32.9375Z" fill="#683B0D"/>
<path d="M19.2202 8.5H18.1577C17.8759 8.5 17.6056 8.38806 17.4064 8.1888C17.2071 7.98954 17.0952 7.71929 17.0952 7.4375C17.0952 7.15571 17.2071 6.88546 17.4064 6.6862C17.6056 6.48694 17.8759 6.375 18.1577 6.375H19.2202C19.5019 6.375 19.7722 6.48694 19.9715 6.6862C20.1707 6.88546 20.2827 7.15571 20.2827 7.4375C20.2827 7.71929 20.1707 7.98954 19.9715 8.1888C19.7722 8.38806 19.5019 8.5 19.2202 8.5Z" fill="#0296E5"/>
<path d="M25.5952 8.5H24.5327C24.2509 8.5 23.9806 8.38806 23.7814 8.1888C23.5821 7.98954 23.4702 7.71929 23.4702 7.4375C23.4702 7.15571 23.5821 6.88546 23.7814 6.6862C23.9806 6.48694 24.2509 6.375 24.5327 6.375H25.5952C25.8769 6.375 26.1472 6.48694 26.3465 6.6862C26.5457 6.88546 26.6577 7.15571 26.6577 7.4375C26.6577 7.71929 26.5457 7.98954 26.3465 8.1888C26.1472 8.38806 25.8769 8.5 25.5952 8.5Z" fill="#0296E5"/>
<path d="M39.4077 8.5H38.3452C38.0634 8.5 37.7931 8.38806 37.5939 8.1888C37.3946 7.98954 37.2827 7.71929 37.2827 7.4375C37.2827 7.15571 37.3946 6.88546 37.5939 6.6862C37.7931 6.48694 38.0634 6.375 38.3452 6.375H39.4077C39.6894 6.375 39.9597 6.48694 40.159 6.6862C40.3582 6.88546 40.4702 7.15571 40.4702 7.4375C40.4702 7.71929 40.3582 7.98954 40.159 8.1888C39.9597 8.38806 39.6894 8.5 39.4077 8.5Z" fill="#0296E5"/>
<path d="M45.7827 8.5H44.7202C44.4384 8.5 44.1681 8.38806 43.9689 8.1888C43.7696 7.98954 43.6577 7.71929 43.6577 7.4375C43.6577 7.15571 43.7696 6.88546 43.9689 6.6862C44.1681 6.48694 44.4384 6.375 44.7202 6.375H45.7827C46.0644 6.375 46.3347 6.48694 46.534 6.6862C46.7332 6.88546 46.8452 7.15571 46.8452 7.4375C46.8452 7.71929 46.7332 7.98954 46.534 8.1888C46.3347 8.38806 46.0644 8.5 45.7827 8.5Z" fill="#0296E5"/>
<path d="M49.0111 2.74518e-07H34.1361C33.641 -0.000190251 33.1509 0.0987944 32.6947 0.291111C32.2385 0.483428 31.8254 0.76518 31.4799 1.11974C31.1343 0.76518 30.7213 0.483428 30.2651 0.291111C29.8088 0.0987944 29.3187 -0.000190251 28.8236 2.74518e-07H13.9486C12.9627 0.00112512 12.0175 0.393281 11.3203 1.09044C10.6232 1.7876 10.231 2.73282 10.2299 3.71875V6.31099C9.882 5.71682 9.35082 5.25148 8.71605 4.98479C8.08128 4.7181 7.37714 4.66444 6.70929 4.83185L2.41772 5.90471C1.60933 6.1023 0.91104 6.6098 0.473531 7.3177C0.0360215 8.0256 -0.105625 8.87713 0.0791575 9.68854L0.49008 11.5378C1.31342 15.246 1.72916 19.0331 1.72988 22.8317V26.0312C1.73101 27.0172 2.12317 27.9624 2.82032 28.6596C3.51748 29.3567 4.4627 29.7489 5.44863 29.75H5.68159L4.94913 32.6798C4.90997 32.8365 4.90703 33 4.94053 33.1579C4.97403 33.3159 5.04308 33.4641 5.14245 33.5914C5.24181 33.7186 5.36887 33.8216 5.51398 33.8924C5.65909 33.9632 5.81842 34 5.97988 34H9.16738C9.33233 34 9.49501 33.9616 9.64255 33.8878C9.79008 33.8141 9.91842 33.707 10.0174 33.575L12.8861 29.75H52.1986L55.0674 33.575C55.1663 33.707 55.2947 33.8141 55.4422 33.8878C55.5897 33.9616 55.7524 34 55.9174 34H59.1049C59.2663 34 59.4257 33.9632 59.5708 33.8924C59.7159 33.8216 59.843 33.7186 59.9423 33.5914C60.0417 33.4641 60.1107 33.3159 60.1442 33.1579C60.1777 33 60.1748 32.8365 60.1356 32.6798L59.2898 29.2962C59.8765 28.9763 60.3662 28.5043 60.7076 27.9298C61.049 27.3553 61.2294 26.6995 61.2299 26.0312V22.8317C61.2306 19.0331 61.6463 15.246 62.4697 11.5378L62.8806 9.68854C63.0655 8.87712 62.9238 8.02556 62.4863 7.31764C62.0488 6.60973 61.3505 6.10224 60.542 5.90471L56.2505 4.83185C55.5826 4.66444 54.8785 4.7181 54.2437 4.98479C53.6089 5.25148 53.0778 5.71682 52.7299 6.31099V3.71875C52.7288 2.73282 52.3366 1.7876 51.6394 1.09044C50.9423 0.393281 49.9971 0.00112512 49.0111 2.74518e-07ZM32.5424 3.71875C32.5428 3.2962 32.7109 2.89109 33.0097 2.5923C33.3085 2.29352 33.7136 2.12546 34.1361 2.125H49.0111C49.4337 2.12546 49.8388 2.29352 50.1376 2.5923C50.4364 2.89109 50.6044 3.2962 50.6049 3.71875V13.1095C50.1071 12.8723 49.5625 12.7495 49.0111 12.75H34.1361C33.5847 12.7495 33.0402 12.8723 32.5424 13.1095V3.71875ZM32.5424 16.4688C32.5428 16.0462 32.7109 15.6411 33.0097 15.3423C33.3085 15.0435 33.7136 14.8755 34.1361 14.875H49.0111C49.4337 14.8755 49.8388 15.0435 50.1376 15.3423C50.4364 15.6411 50.6044 16.0462 50.6049 16.4688V19.125H32.5424V16.4688ZM12.3549 3.71875C12.3553 3.2962 12.5234 2.89109 12.8222 2.5923C13.121 2.29352 13.5261 2.12546 13.9486 2.125H28.8236C29.2462 2.12546 29.6513 2.29352 29.9501 2.5923C30.2489 2.89109 30.4169 3.2962 30.4174 3.71875V13.1095C29.9196 12.8723 29.375 12.7495 28.8236 12.75H13.9486C13.3972 12.7495 12.8527 12.8723 12.3549 13.1095V3.71875ZM12.3549 16.4688C12.3553 16.0462 12.5234 15.6411 12.8222 15.3423C13.121 15.0435 13.5261 14.8755 13.9486 14.875H28.8236C29.2462 14.8755 29.6513 15.0435 29.9501 15.3423C30.2489 15.6411 30.4169 16.0462 30.4174 16.4688V19.125H12.3549V16.4688ZM8.63613 31.875H7.34068L7.87193 29.75H10.2299L8.63613 31.875ZM56.4486 31.875L54.8549 29.75H57.2128L57.7441 31.875H56.4486ZM53.2826 14.0559L54.432 7.73407C54.458 7.59108 54.5131 7.45494 54.5938 7.33409C54.6746 7.21323 54.7792 7.11022 54.9014 7.03144C55.0235 6.95265 55.1605 6.89976 55.3039 6.87603C55.4473 6.8523 55.594 6.85825 55.735 6.8935L60.0266 7.96636C60.2962 8.03216 60.5291 8.20138 60.675 8.43746C60.8208 8.67354 60.868 8.95753 60.8062 9.22808L60.3953 11.0766C59.5383 14.9362 59.1056 18.878 59.1049 22.8317V26.0312C59.1044 26.4538 58.9364 26.8589 58.6376 27.1577C58.3388 27.4565 57.9337 27.6245 57.5111 27.625H5.44863C5.02608 27.6245 4.62097 27.4565 4.32219 27.1577C4.0234 26.8589 3.85534 26.4538 3.85488 26.0312V22.8317C3.85417 18.878 3.42146 14.9362 2.56448 11.0766L2.15356 9.22768C2.09189 8.95714 2.13908 8.6732 2.28494 8.43715C2.4308 8.20109 2.66362 8.03185 2.93317 7.96596C2.93317 7.96596 7.39898 6.8607 7.48558 6.8607C7.73385 6.86183 7.97392 6.94972 8.16424 7.10916C8.35456 7.26861 8.48315 7.48957 8.52776 7.73381L9.67712 14.0557C10.0446 16.079 10.2296 18.1311 10.2299 20.1875C10.2299 20.4693 10.3418 20.7395 10.5411 20.9388C10.7403 21.1381 11.0106 21.25 11.2924 21.25H51.6674C51.9492 21.25 52.2194 21.1381 52.4187 20.9388C52.6179 20.7395 52.7299 20.4693 52.7299 20.1875V20.1855C52.7303 18.1299 52.9153 16.0785 53.2826 14.0559Z" fill="black"/>
<path d="M18.1577 8.5H19.2202C19.5019 8.5 19.7722 8.38806 19.9715 8.1888C20.1707 7.98954 20.2827 7.71929 20.2827 7.4375C20.2827 7.15571 20.1707 6.88546 19.9715 6.6862C19.7722 6.48694 19.5019 6.375 19.2202 6.375H18.1577C17.8759 6.375 17.6056 6.48694 17.4064 6.6862C17.2071 6.88546 17.0952 7.15571 17.0952 7.4375C17.0952 7.71929 17.2071 7.98954 17.4064 8.1888C17.6056 8.38806 17.8759 8.5 18.1577 8.5Z" fill="black"/>
<path d="M24.5327 8.5H25.5952C25.8769 8.5 26.1472 8.38806 26.3465 8.1888C26.5457 7.98954 26.6577 7.71929 26.6577 7.4375C26.6577 7.15571 26.5457 6.88546 26.3465 6.6862C26.1472 6.48694 25.8769 6.375 25.5952 6.375H24.5327C24.2509 6.375 23.9806 6.48694 23.7814 6.6862C23.5821 6.88546 23.4702 7.15571 23.4702 7.4375C23.4702 7.71929 23.5821 7.98954 23.7814 8.1888C23.9806 8.38806 24.2509 8.5 24.5327 8.5Z" fill="black"/>
<path d="M38.3452 8.5H39.4077C39.6894 8.5 39.9597 8.38806 40.159 8.1888C40.3582 7.98954 40.4702 7.71929 40.4702 7.4375C40.4702 7.15571 40.3582 6.88546 40.159 6.6862C39.9597 6.48694 39.6894 6.375 39.4077 6.375H38.3452C38.0634 6.375 37.7931 6.48694 37.5939 6.6862C37.3946 6.88546 37.2827 7.15571 37.2827 7.4375C37.2827 7.71929 37.3946 7.98954 37.5939 8.1888C37.7931 8.38806 38.0634 8.5 38.3452 8.5Z" fill="black"/>
<path d="M44.7202 8.5H45.7827C46.0644 8.5 46.3347 8.38806 46.534 8.1888C46.7332 7.98954 46.8452 7.71929 46.8452 7.4375C46.8452 7.15571 46.7332 6.88546 46.534 6.6862C46.3347 6.48694 46.0644 6.375 45.7827 6.375H44.7202C44.4384 6.375 44.1681 6.48694 43.9689 6.6862C43.7696 6.88546 43.6577 7.15571 43.6577 7.4375C43.6577 7.71929 43.7696 7.98954 43.9689 8.1888C44.1681 8.38806 44.4384 8.5 44.7202 8.5Z" fill="black"/>
</svg>
