<svg width="63" height="34" viewBox="0 0 63 34" fill="none" xmlns="http://www.w3.org/2000/svg">
<path d="M14.4688 1.0625H29.3438C30.0482 1.0625 30.7239 1.34235 31.222 1.8405C31.7201 2.33864 32 3.01427 32 3.71875V20.1875H11.8125V3.71875C11.8125 3.01427 12.0924 2.33864 12.5905 1.8405C13.0886 1.34235 13.7643 1.0625 14.4688 1.0625V1.0625Z" fill="#0BAFEA"/>
<path d="M34.6562 1.0625H49.5312C50.2357 1.0625 50.9114 1.34235 51.4095 1.8405C51.9076 2.33864 52.1875 3.01427 52.1875 3.71875V20.1875H32V3.71875C32 3.01427 32.2799 2.33864 32.778 1.8405C33.2761 1.34235 33.9518 1.0625 34.6562 1.0625Z" fill="#0BAFEA"/>
<path d="M32 20.1875H11.8125V16.4688C11.8125 15.7643 12.0924 15.0886 12.5905 14.5905C13.0886 14.0924 13.7643 13.8125 14.4688 13.8125H29.3438C30.0482 13.8125 30.7239 14.0924 31.222 14.5905C31.7201 15.0886 32 15.7643 32 16.4688V20.1875Z" fill="#2C56B2"/>
<path d="M52.1875 20.1875H32V16.4688C32 15.7643 32.2799 15.0886 32.778 14.5905C33.2761 14.0924 33.9518 13.8125 34.6562 13.8125H49.5312C50.2357 13.8125 50.9114 14.0924 51.4095 14.5905C51.9076 15.0886 52.1875 15.7643 52.1875 16.4688V20.1875Z" fill="#2C56B2"/>
<path d="M60.8045 6.93548L56.5129 5.86262C56.2309 5.7921 55.9374 5.7802 55.6506 5.82766C55.3638 5.87512 55.0898 5.98092 54.8455 6.13852C54.6012 6.29613 54.3918 6.50218 54.2304 6.74393C54.0689 6.98569 53.9588 7.258 53.9068 7.54403L52.7574 13.8659C52.3782 15.9511 52.1875 18.0661 52.1875 20.1855V20.1875H11.8125V20.1855C11.8125 18.0661 11.6218 15.9509 11.2426 13.8656L10.0932 7.54376C10.0412 7.25773 9.9311 6.98542 9.76964 6.74367C9.60818 6.50192 9.39883 6.29586 9.15454 6.13826C8.91026 5.98065 8.63623 5.87485 8.34942 5.82739C8.0626 5.77994 7.7691 5.79183 7.48707 5.86235L3.1955 6.93548C2.65815 7.06983 2.19449 7.40869 1.9033 7.87986C1.6121 8.35103 1.51639 8.91728 1.63655 9.45799L2.04747 11.3073C2.88831 15.0911 3.31251 18.9556 3.31251 22.8317V26.0313C3.31251 26.7357 3.59236 27.4114 4.0905 27.9095C4.58865 28.4077 5.26427 28.6875 5.96876 28.6875H58.0313C58.7357 28.6875 59.4114 28.4077 59.9095 27.9095C60.4077 27.4114 60.6875 26.7357 60.6875 26.0313V22.8317C60.6875 18.9556 61.1117 15.0911 61.9525 11.3073L62.3635 9.45799C62.4836 8.91728 62.3879 8.35103 62.0967 7.87986C61.8055 7.40869 61.3419 7.06983 60.8045 6.93548V6.93548Z" fill="#0BAFEA"/>
<path d="M9.6875 32.9375H6.5L7.5625 28.6875H12.875L9.6875 32.9375Z" fill="#683B0D"/>
<path d="M56.4375 32.9375H59.625L58.5625 28.6875H53.25L56.4375 32.9375Z" fill="#683B0D"/>
<path d="M19.25 8.5H18.1875C17.9057 8.5 17.6355 8.38806 17.4362 8.1888C17.2369 7.98954 17.125 7.71929 17.125 7.4375C17.125 7.15571 17.2369 6.88546 17.4362 6.6862C17.6355 6.48694 17.9057 6.375 18.1875 6.375H19.25C19.5318 6.375 19.802 6.48694 20.0013 6.6862C20.2006 6.88546 20.3125 7.15571 20.3125 7.4375C20.3125 7.71929 20.2006 7.98954 20.0013 8.1888C19.802 8.38806 19.5318 8.5 19.25 8.5Z" fill="#0296E5"/>
<path d="M25.625 8.5H24.5625C24.2807 8.5 24.0105 8.38806 23.8112 8.1888C23.6119 7.98954 23.5 7.71929 23.5 7.4375C23.5 7.15571 23.6119 6.88546 23.8112 6.6862C24.0105 6.48694 24.2807 6.375 24.5625 6.375H25.625C25.9068 6.375 26.177 6.48694 26.3763 6.6862C26.5756 6.88546 26.6875 7.15571 26.6875 7.4375C26.6875 7.71929 26.5756 7.98954 26.3763 8.1888C26.177 8.38806 25.9068 8.5 25.625 8.5Z" fill="#0296E5"/>
<path d="M39.4375 8.5H38.375C38.0932 8.5 37.823 8.38806 37.6237 8.1888C37.4244 7.98954 37.3125 7.71929 37.3125 7.4375C37.3125 7.15571 37.4244 6.88546 37.6237 6.6862C37.823 6.48694 38.0932 6.375 38.375 6.375H39.4375C39.7193 6.375 39.9895 6.48694 40.1888 6.6862C40.3881 6.88546 40.5 7.15571 40.5 7.4375C40.5 7.71929 40.3881 7.98954 40.1888 8.1888C39.9895 8.38806 39.7193 8.5 39.4375 8.5Z" fill="#0296E5"/>
<path d="M45.8125 8.5H44.75C44.4682 8.5 44.198 8.38806 43.9987 8.1888C43.7994 7.98954 43.6875 7.71929 43.6875 7.4375C43.6875 7.15571 43.7994 6.88546 43.9987 6.6862C44.198 6.48694 44.4682 6.375 44.75 6.375H45.8125C46.0943 6.375 46.3645 6.48694 46.5638 6.6862C46.7631 6.88546 46.875 7.15571 46.875 7.4375C46.875 7.71929 46.7631 7.98954 46.5638 8.1888C46.3645 8.38806 46.0943 8.5 45.8125 8.5Z" fill="#0296E5"/>
<path d="M49.041 2.74518e-07H34.166C33.6709 -0.000190251 33.1808 0.0987944 32.7246 0.291111C32.2683 0.483428 31.8553 0.76518 31.5097 1.11974C31.1642 0.76518 30.7511 0.483428 30.2949 0.291111C29.8387 0.0987944 29.3486 -0.000190251 28.8535 2.74518e-07H13.9785C12.9926 0.00112512 12.0473 0.393281 11.3502 1.09044C10.653 1.7876 10.2609 2.73282 10.2597 3.71875V6.31099C9.91184 5.71682 9.38067 5.25148 8.7459 4.98479C8.11113 4.7181 7.40699 4.66444 6.73914 4.83185L2.44757 5.90471C1.63918 6.1023 0.940887 6.6098 0.503377 7.3177C0.0658677 8.0256 -0.075779 8.87713 0.109004 9.68854L0.519926 11.5378C1.34327 15.246 1.759 19.0331 1.75973 22.8317V26.0312C1.76086 27.0172 2.15301 27.9624 2.85017 28.6596C3.54733 29.3567 4.49255 29.7489 5.47848 29.75H5.71143L4.97897 32.6798C4.93982 32.8365 4.93688 33 4.97038 33.1579C5.00387 33.3159 5.07293 33.4641 5.17229 33.5914C5.27166 33.7186 5.39872 33.8216 5.54383 33.8924C5.68893 33.9632 5.84827 34 6.00973 34H9.19723C9.36218 34 9.52486 33.9616 9.67239 33.8878C9.81993 33.8141 9.94826 33.707 10.0472 33.575L12.916 29.75H52.2285L55.0972 33.575C55.1962 33.707 55.3245 33.8141 55.4721 33.8878C55.6196 33.9616 55.7823 34 55.9472 34H59.1347C59.2962 34 59.4555 33.9632 59.6006 33.8924C59.7457 33.8216 59.8728 33.7186 59.9722 33.5914C60.0715 33.4641 60.1406 33.3159 60.1741 33.1579C60.2076 33 60.2046 32.8365 60.1655 32.6798L59.3196 29.2962C59.9063 28.9763 60.3961 28.5043 60.7375 27.9298C61.0789 27.3553 61.2593 26.6995 61.2597 26.0312V22.8317C61.2605 19.0331 61.6762 15.246 62.4995 11.5378L62.9104 9.68854C63.0953 8.87712 62.9537 8.02556 62.5162 7.31764C62.0787 6.60973 61.3803 6.10224 60.5719 5.90471L56.2803 4.83185C55.6125 4.66444 54.9083 4.7181 54.2736 4.98479C53.6388 5.25148 53.1076 5.71682 52.7597 6.31099V3.71875C52.7586 2.73282 52.3664 1.7876 51.6693 1.09044C50.9721 0.393281 50.0269 0.00112512 49.041 2.74518e-07V2.74518e-07ZM32.5722 3.71875C32.5727 3.2962 32.7407 2.89109 33.0395 2.5923C33.3383 2.29352 33.7434 2.12546 34.166 2.125H49.041C49.4635 2.12546 49.8686 2.29352 50.1674 2.5923C50.4662 2.89109 50.6343 3.2962 50.6347 3.71875V13.1095C50.1369 12.8723 49.5924 12.7495 49.041 12.75H34.166C33.6146 12.7495 33.07 12.8723 32.5722 13.1095V3.71875ZM32.5722 16.4688C32.5727 16.0462 32.7407 15.6411 33.0395 15.3423C33.3383 15.0435 33.7434 14.8755 34.166 14.875H49.041C49.4635 14.8755 49.8686 15.0435 50.1674 15.3423C50.4662 15.6411 50.6343 16.0462 50.6347 16.4688V19.125H32.5722V16.4688ZM12.3847 3.71875C12.3852 3.2962 12.5532 2.89109 12.852 2.5923C13.1508 2.29352 13.5559 2.12546 13.9785 2.125H28.8535C29.276 2.12546 29.6811 2.29352 29.9799 2.5923C30.2787 2.89109 30.4468 3.2962 30.4472 3.71875V13.1095C29.9494 12.8723 29.4049 12.7495 28.8535 12.75H13.9785C13.4271 12.7495 12.8825 12.8723 12.3847 13.1095V3.71875ZM12.3847 16.4688C12.3852 16.0462 12.5532 15.6411 12.852 15.3423C13.1508 15.0435 13.5559 14.8755 13.9785 14.875H28.8535C29.276 14.8755 29.6811 15.0435 29.9799 15.3423C30.2787 15.6411 30.4468 16.0462 30.4472 16.4688V19.125H12.3847V16.4688ZM8.66598 31.875H7.37053L7.90178 29.75H10.2597L8.66598 31.875ZM56.4785 31.875L54.8847 29.75H57.2427L57.7739 31.875H56.4785ZM53.3125 14.0559L54.4619 7.73407C54.4879 7.59108 54.5429 7.45494 54.6237 7.33409C54.7044 7.21323 54.8091 7.11022 54.9312 7.03144C55.0534 6.95265 55.1904 6.89976 55.3337 6.87603C55.4771 6.85231 55.6239 6.85825 55.7649 6.8935L60.0564 7.96636C60.326 8.03216 60.5589 8.20138 60.7048 8.43746C60.8507 8.67354 60.8978 8.95753 60.8361 9.22808L60.4251 11.0766C59.5681 14.9362 59.1354 18.878 59.1347 22.8317V26.0312C59.1343 26.4538 58.9662 26.8589 58.6674 27.1577C58.3686 27.4565 57.9635 27.6245 57.541 27.625H5.47848C5.05593 27.6245 4.65082 27.4565 4.35203 27.1577C4.05325 26.8589 3.88519 26.4538 3.88473 26.0312V22.8317C3.88401 18.878 3.45131 14.9362 2.59432 11.0766L2.1834 9.22768C2.12174 8.95714 2.16893 8.6732 2.31479 8.43714C2.46064 8.20109 2.69347 8.03185 2.96301 7.96596C2.96301 7.96596 7.42883 6.8607 7.51542 6.8607C7.7637 6.86183 8.00377 6.94972 8.19409 7.10916C8.3844 7.26861 8.51299 7.48957 8.5576 7.73381L9.70696 14.0557C10.0744 16.079 10.2594 18.1311 10.2597 20.1875C10.2597 20.4693 10.3717 20.7395 10.5709 20.9388C10.7702 21.1381 11.0404 21.25 11.3222 21.25H51.6972C51.979 21.25 52.2493 21.1381 52.4485 20.9388C52.6478 20.7395 52.7597 20.4693 52.7597 20.1875V20.1855C52.7602 18.1299 52.9452 16.0785 53.3125 14.0559V14.0559Z" fill="black"/>
<path d="M18.1875 8.5H19.25C19.5318 8.5 19.802 8.38806 20.0013 8.1888C20.2006 7.98954 20.3125 7.71929 20.3125 7.4375C20.3125 7.15571 20.2006 6.88546 20.0013 6.6862C19.802 6.48694 19.5318 6.375 19.25 6.375H18.1875C17.9057 6.375 17.6355 6.48694 17.4362 6.6862C17.2369 6.88546 17.125 7.15571 17.125 7.4375C17.125 7.71929 17.2369 7.98954 17.4362 8.1888C17.6355 8.38806 17.9057 8.5 18.1875 8.5Z" fill="black"/>
<path d="M24.5625 8.5H25.625C25.9068 8.5 26.177 8.38806 26.3763 8.1888C26.5756 7.98954 26.6875 7.71929 26.6875 7.4375C26.6875 7.15571 26.5756 6.88546 26.3763 6.6862C26.177 6.48694 25.9068 6.375 25.625 6.375H24.5625C24.2807 6.375 24.0105 6.48694 23.8112 6.6862C23.6119 6.88546 23.5 7.15571 23.5 7.4375C23.5 7.71929 23.6119 7.98954 23.8112 8.1888C24.0105 8.38806 24.2807 8.5 24.5625 8.5Z" fill="black"/>
<path d="M38.375 8.5H39.4375C39.7193 8.5 39.9895 8.38806 40.1888 8.1888C40.3881 7.98954 40.5 7.71929 40.5 7.4375C40.5 7.15571 40.3881 6.88546 40.1888 6.6862C39.9895 6.48694 39.7193 6.375 39.4375 6.375H38.375C38.0932 6.375 37.823 6.48694 37.6237 6.6862C37.4244 6.88546 37.3125 7.15571 37.3125 7.4375C37.3125 7.71929 37.4244 7.98954 37.6237 8.1888C37.823 8.38806 38.0932 8.5 38.375 8.5Z" fill="black"/>
<path d="M44.75 8.5H45.8125C46.0943 8.5 46.3645 8.38806 46.5638 8.1888C46.7631 7.98954 46.875 7.71929 46.875 7.4375C46.875 7.15571 46.7631 6.88546 46.5638 6.6862C46.3645 6.48694 46.0943 6.375 45.8125 6.375H44.75C44.4682 6.375 44.198 6.48694 43.9987 6.6862C43.7994 6.88546 43.6875 7.15571 43.6875 7.4375C43.6875 7.71929 43.7994 7.98954 43.9987 8.1888C44.198 8.38806 44.4682 8.5 44.75 8.5Z" fill="black"/>
</svg>
